<svg viewBox="0 -50 202.92 202.92" xmlns="http://www.w3.org/2000/svg">
    <path d="m92.07 71.17c-3.56-5.08-6.89-9.65-10-14.35-3.77-5.63-8.15-11-10.81-17.17-2.26-5.13-2.57-11.13-3.26-16.8-.34-2.57 1.58-4.46 3.89-5.6a19.88 19.88 0 0 1 10.63-1.52q29.49 2.55 59 5.32c9.33.89 18.63 2 27.94 3.05.68.07 1.37.1 2.59.19l-9.86-7a12.2 12.2 0 0 0 -1-.73 10.86 10.86 0 0 1 -5.94-11 36.22 36.22 0 0 0 -.52-5.6l6.82 5.09a129.3 129.3 0 0 0 37.45 19.26 3 3 0 0 1 2.37 2.69c.47 4 1 8 1.55 12.18a145.56 145.56 0 0 0 -51 23.22c-.83-4.11-1.58-8-2.4-11.86-.33-1.55.71-2.21 1.72-2.83 4.94-3 9.92-6 14.89-9 .35-.21.72-.4 1.58-.89-1.18-.17-1.88-.3-2.58-.37-27.13-2.55-54.24-5.15-81.38-7.61a30.29 30.29 0 0 0 -8 .74c-1.3.23-2.48 1.17-4 2 1.81 2.53 3.46 4.71 5 7 4.86 7.22 10 14.31 14.43 21.76 3.43 5.72 3.9 12.4 4 18.94 0 3.76-2.56 6-5.82 7.42a28.42 28.42 0 0 1 -12.24 2.3 265.65 265.65 0 0 1 -73.85-12.79 3.25 3.25 0 0 1 -1.7-2 45.2 45.2 0 0 1 -.9-5.67c-.25-1.89-.44-3.79-.67-5.77 5.94 1.63 11.84 3.33 17.78 4.84a263.67 263.67 0 0 0 54.47 7.87c4.82.19 9.71 0 14.24-1.9a45.48 45.48 0 0 0 5.58-3.41z"></path>
</svg>