<svg xmlns="http://www.w3.org/2000/svg" viewBox="-6 0 139.6 139.6">
    <path
            d="m72.07 138.24-9.07-56.59a.17.17 0 0 0 -.34 0l-8.37 55.24a1.63 1.63 0 0 1 -1.78 1.37l-51.07-5.65a1.62 1.62 0 0 1 -1.44-1.79l11.9-104.9c0-.06 0-.12 0-.18v-24.12a1.61 1.61 0 0 1 1.63-1.62h99.47a1.62 1.62 0 0 1 1.62 1.61v23.86.18l12.24 106.5a1.62 1.62 0 0 1 -1.43 1.8l-51.63 5.64a1.63 1.63 0 0 1 -1.73-1.35zm-7.71-86.44 12.74 79.85a1.62 1.62 0 0 0 1.77 1.35l40-4.37a1.61 1.61 0 0 0 1.43-1.79l-11.63-100.84c0-.06 0-.12 0-.18v-18.21a1.62 1.62 0 0 0 -1.67-1.61h-87.47a1.63 1.63 0 0 0 -1.62 1.62v18.63.18l-11.26 99.09a1.62 1.62 0 0 0 1.43 1.79l39.4 4.35a1.63 1.63 0 0 0 1.78-1.37l11.9-78.48a1.62 1.62 0 0 1 3.2-.01z"></path>
    <path d="m14.92 29v-6c5 0 95.82-.26 96.73-.27v6c-.89.01-91.71.27-96.73.27z"></path>
    <path d="m73.86 59.55a2.84 2.84 0 0 1 -2.69-1.92l-9.87-28.72a0 0 0 0 0 0 0l-8.9 16.91a3 3 0 0 1 -3.82 1.43 2.86 2.86 0 0 1 -1.32-3.91l12.48-23.84a2.44 2.44 0 0 1 4.47.34l12.35 35.94a2.86 2.86 0 0 1 -1.77 3.62 3 3 0 0 1 -.93.15z"></path>
</svg>