<svg xmlns="http://www.w3.org/2000/svg" viewBox="0 0 125.23 125.23">
    <path d="m125.23 125.23h-115.53l-9.7-7.4v-6.68l7.89-6-7.89-6.04v-6.69l7.89-6-7.89-6.03v-6.69l7.89-6-7.89-6.04v-6.66l7.89-6-7.89-6.06v-6.69l7.89-6-7.89-6.03v-6.69l7.89-6-7.89-6.04v-5.49h63.73l61.5 52.79zm-113.5-6h107.5v-63.68l-57.72-49.55h-50.95l7.23 5.51-11.79 8.99v.75l11.79 9-11.79 8.97v.78l11.79 9-11.79 9v.74l11.79 9-11.79 8.93v.75l11.79 9-11.79 8.98v.74l11.79 9-11.79 8.98v.74z"></path>
    <path d="m122.23 56.6h-62.61v-53.6h6v47.6h56.61z"></path>
</svg>