<svg class="fill-current" viewBox="-22 0 148.23 148.23" xmlns="http://www.w3.org/2000/svg">
    <path d="m101.82 10.62c-6-6-13.83-7.23-21.35-8.37-1.21-.18-2.43-.36-3.64-.57-3-.5-6-.85-8.92-1.19-1.33-.16-2.67-.31-4-.48h-25.68c-1.8.24-3.61.46-5.42.68-4.14.49-8.42 1-12.59 1.84a103.27 103.27 0 0 0 -14.89 4.27c-3.54 1.27-5.33 4.09-5.33 8.39.13 41.81.13 79.56 0 115.39 0 4.52 2.13 7.69 6.19 9.17l.31.11c6.54 2.37 13.29 4.82 20.2 6.06a142.79 142.79 0 0 0 25.3 2.31 122.7 122.7 0 0 0 35.57-5.14c3.43-1.09 6.68-3.09 9.78-5.15 1.39-.9 2.83-1.83 4.26-2.64l.5-.29v-124.1zm-96.66 108.47c32.57 11.91 60.2 11.91 91.84-.01q0 1.41.06 2.79a71.34 71.34 0 0 1 -.27 10.29c-.14 1.14-2.17 3.05-3.74 3.52l-2.73.83c-6.77 2.06-13.77 4.19-20.78 5.2a125.63 125.63 0 0 1 -53.74-3.41c-10.64-3.11-10.64-3.11-10.64-14.3zm87.84-71.93c-1.8.39-3.59.81-5.39 1.22a141.37 141.37 0 0 1 -19.61 3.62c-21.79 1.82-39.2.75-54.77-3.4-.76-.2-1.5-.45-2.29-.72-.47-.17-1-.33-1.42-.48-2.12-.67-3.5-1.61-4.11-2.78a4.08 4.08 0 0 1 -.3-2.72 175.43 175.43 0 0 0 92 0 4.38 4.38 0 0 1 -.39 3 5.43 5.43 0 0 1 -3.72 2.26zm-87.75 4.36a165.57 165.57 0 0 0 91.63 0c.39 3.62-.17 4.45-4.19 5.39-10.87 2.56-20 4.44-29.36 5.32a144.38 144.38 0 0 1 -48.49-3.44 41 41 0 0 1 -5.15-1.65c-4.15-1.59-4.69-2.01-4.44-5.62zm91.75-28.93c0 3.59.11 7.3-.19 11a5 5 0 0 1 -2.7 3.19 97.16 97.16 0 0 1 -15.86 4.08c-22.9 3.29-43.8 2.7-63.87-1.8l-.38-.06c-4.58-1.18-6.88-1.77-7.88-3.06s-1-3.68-1-8.44v-7.6c30.7 8.34 60.77 8.35 91.83 0zm.19-9.15c-.72.32-1.44.66-2.14 1a28.3 28.3 0 0 1 -5.64 2.22 170.79 170.79 0 0 1 -76.57 0 28.29 28.29 0 0 1 -5.81-2.3c-.71-.35-1.45-.7-2.19-1v-.48c.54-.3 1.08-.61 1.6-.92a14.22 14.22 0 0 1 4.34-2l3.73-.72a219.56 219.56 0 0 1 23.49-3.6c18.78-1.53 35.43-.36 50.88 3.55a34.83 34.83 0 0 1 6.12 2.4c.76.35 1.51.7 2.26 1zm-92.19 47.72a157.62 157.62 0 0 0 91.81.08c.56 3.33.07 4.14-3.7 5.2-7.79 2.21-16.11 4.44-24.44 5.37-20.06 2.19-37.81 1.11-54.26-3.37-1-.28-2-.64-3-1-.59-.21-1.18-.43-1.78-.62-4.47-1.49-4.96-3.82-4.63-5.66zm.07 19.49a147.73 147.73 0 0 0 92 0 4.3 4.3 0 0 1 -.34 2.92 5.35 5.35 0 0 1 -3.5 2.38c-1.65.44-3.31.9-5 1.37a142 142 0 0 1 -19 4.38 134.17 134.17 0 0 1 -54.23-3.45 40.43 40.43 0 0 1 -4-1.42c-.62-.25-1.24-.49-1.87-.72-3.13-1.18-4.47-2.93-4.04-5.46zm87.85-4.3c-1.83.43-3.65.88-5.48 1.33-7.25 1.78-14.74 3.63-22.17 4.39-18.08 1.84-34.3.74-49.6-3.38a46.09 46.09 0 0 1 -6.2-2.18c-4.08-1.76-4.47-1.93-4.21-5.51a152 152 0 0 0 91.85 0 4.37 4.37 0 0 1 -.4 3 5.56 5.56 0 0 1 -3.77 2.35zm-87.88 14c30.4 10.23 61.36 10.25 92.05.06a4.38 4.38 0 0 1 -.38 2.88 5.22 5.22 0 0 1 -3.44 2.34c-2 .52-4 1.06-6 1.61-7 1.92-14.28 3.9-21.51 4.7-19 2.11-35.82.77-51.39-4.11-1.24-.38-2.48-.89-3.68-1.38l-1.8-.71c-2.99-1.16-4.26-2.92-3.83-5.38zm87.36 15.59c-10.81 4.68-22.39 6-31.26 6.58-16.9 1.16-31.78-.29-45.51-4.4a47.61 47.61 0 0 1 -6.14-2.34c-3.87-1.79-4.39-2.19-4.25-5.64 30.33 10.53 61.23 10.51 91.88-.07.39 2.56-1.01 4.26-4.72 5.87zm-87.4 3.85c30.64 11 61.59 11 92-.07a4.58 4.58 0 0 1 -.44 3 6.08 6.08 0 0 1 -3.91 2.66c-1.8.5-3.6 1-5.4 1.54-6.93 2-14.09 4.07-21.24 5a118.15 118.15 0 0 1 -51.3-4.29c-1.42-.45-2.84-1.07-4.22-1.66-.52-.23-1-.46-1.56-.67-2.93-1.3-4.23-3.07-3.93-5.51z"></path>
</svg>