<svg xmlns="http://www.w3.org/2000/svg" viewBox="-3 0 131.16 131.16">
    <path d="m85.22 131.16c-18.2 0-30.13-3.34-35.72-5.38a.32.32 0 0 0 -.13 0 5.88 5.88 0 0 1 -6 5.38h-28.25a6 6 0 0 1 -5-2.57c-1.77-2.52-3.58-10 4.15-31.39-4.95-16.38-12.48-75.64-14.27-90.69a5.54 5.54 0 0 1 1.4-4.28 6.2 6.2 0 0 1 4.6-2.03l55-.2a6.15 6.15 0 0 1 4.56 2 5.44 5.44 0 0 1 1.44 4.21c-1 11.3-4 49.52.21 66.81 4 16.52 18.5 20.26 33.82 24.21 2.23.58 4.53 1.17 6.78 1.81 12.74 3.56 16.91 16.63 15.8 24.78-.5 3.66-5.83 5-5.88 5-5.56 1.37-15.52 2.14-30.45 2.34zm-35.83-11.4a6.29 6.29 0 0 1 2.17.39c5.42 2 17.26 5.26 35.69 5 14.47-.2 24-.91 29.1-2.16a5.58 5.58 0 0 0 1.43-.66c.35-4.84-1.94-14.86-11.53-17.55-2.2-.61-4.47-1.2-6.67-1.77-16.35-4.22-33.27-8.59-38.15-28.6-4.43-18.01-1.43-56.41-.38-68.41l-55.05.2c1.83 15.6 9.25 73.93 14 89.42a5.25 5.25 0 0 1 0 3.38c-5.37 14.83-6.31 24.65-4.94 26.11h28.33a5.56 5.56 0 0 1 2.43-4.26 6.19 6.19 0 0 1 3.57-1.09z"></path>
    <path d="m46.39 99.57c-8.29 0-18.12-3.38-21.58-6-5.69-4.3-12.46-9.79-12.53-9.84l3.78-4.67c.07.06 6.76 5.48 12.37 9.72 3.9 3 18.61 6.65 23.66 3.71.95-.55 1.52-1.31 1.27-3.18-1.87-14 7-24.58 7.38-25l4.57 3.88c-.07.09-7.51 9.07-6 20.35.54 4-1 7.26-4.2 9.15a17.56 17.56 0 0 1 -8.72 1.88z"></path>
    <path d="m4.22 13.08h20.44v6h-20.44z"></path>
</svg>