<svg xmlns="http://www.w3.org/2000/svg" viewBox="0 -10 145.31 145.31">
    <path d="m145.31 114.92h-145.31v-114.92l145.31.69zm-139.31-6h133.31v-102.25l-133.31-.67z"></path>
    <path d="m16.9 114.01h6v9.58h-6z"></path>
    <path d="m125.2 114.01h6v9.58h-6z"></path>
    <path d="m69.65 4.04h6v107.88h-6z"></path>
    <path d="m84.17 69.51a3 3 0 0 1 -3-3v-19.72a3 3 0 0 1 6 0v19.72a3 3 0 0 1 -3 3z"></path>
    <path d="m60.38 69.51a3 3 0 0 1 -3-3v-19.72a3 3 0 0 1 6 0v19.72a3 3 0 0 1 -3 3z"></path>
</svg>