<svg xmlns="http://www.w3.org/2000/svg" viewBox="-15 0 145.73 145.73">
    <path d="m90.05 52.8a26.4 26.4 0 0 1 -21.74-41.34 26.57 26.57 0 0 1 27.87-10.76l4.26 1-13.13 19.15 9 6.15 13.09-19.15 2.47 3.61a26.39 26.39 0 0 1 -21.82 41.34zm.11-46.8a20.41 20.41 0 1 0 18.92 12.93l-11.26 16.41-18.82-12.93 11.22-16.41z"></path>
    <path d="m26.29 145.73a26.08 26.08 0 0 1 -6-.7l-4.29-1.03 13.13-19.14-9-6.15-13.06 19.17-2.47-3.61a26.57 26.57 0 0 1 0-29.87 26.41 26.41 0 0 1 43.57 29.87 26.63 26.63 0 0 1 -21.88 11.46zm0-6h.06a20.4 20.4 0 0 0 11.57-37.23 20.39 20.39 0 0 0 -28.38 5.29 20.56 20.56 0 0 0 -2.15 19l11.25-16.41 18.86 12.94z"></path>
    <path d="m31.22 73.92h65.85v6h-65.85z" transform="matrix(.56539895 -.82481757 .82481757 .56539895 -35.57 86.34)"></path>
    <path d="m18.04 64.88h65.85v6h-65.85z" transform="matrix(.56539895 -.82481757 .82481757 .56539895 -33.84 71.54)"></path>
</svg>