<svg xmlns="http://www.w3.org/2000/svg" viewBox="-12.5 0 155.91 155.91">
    <path d="m129.89 155.91h-129.89v-155.91h129.89zm-123.89-6h117.89v-143.91h-117.89z"></path>
    <path d="m96.1 61.56c-14.76 0-31.37-4.54-44.92-8.25-4.81-1.31-9.36-2.56-13.28-3.45-11.82-2.7-25.16 2.14-30.9 4.26-2.22.81-3.14 1.15-4 1.15v-6a2.08 2.08 0 0 0 -.37 0c.31-.07 1.39-.46 2.35-.82 6.2-2.26 20.71-7.56 34.25-4.47 4.05.92 8.66 2.18 13.53 3.51 14.28 3.91 32 8.76 46.69 7.95 18.75-1 25.66-5.58 25.73-5.63l3.44 4.92c-.32.23-8.06 5.54-28.83 6.7-1.22.1-2.45.13-3.69.13z"></path>
    <path d="m59.6 48.06h-42.45v-28h42.45zm-36.45-6h30.45v-16h-30.45z"></path>
    <path d="m114.35 48.06h-42.45v-28h42.45zm-36.45-6h30.45v-16h-30.45z"></path>
</svg>