<svg xmlns="http://www.w3.org/2000/svg" viewBox="0 -10 145.5 145.5">
    <path d="m80.21 103-1.87-3.71c-.92-1.82-1.1-1.94-4.55-.56-.77.3-1.56.62-2.4.88-19.76 6.13-43.51-1.94-57.75-19.63-12.94-16.1-16.7-33.16-11.17-50.74 6.92-22 29.53-33.64 53.86-27.69 28.18 6.9 48.31 34.64 44.88 61.84a33.2 33.2 0 0 1 -2.37 9.91c-1.69 3.63-1 4 .64 4.84l3.64 1.86zm-36.35-97c-16.62 0-30.78 9.51-35.66 25-5 15.76-1.65 30.53 10.11 45.14 12.69 15.86 33.83 23.11 51.31 17.7.61-.19 1.25-.45 1.94-.72 2.4-1 6.45-2.58 9.75.24l12.28-12.29c-3.23-3.78-1-8.52-.19-10.31a27.65 27.65 0 0 0 1.86-8.12c3.06-24.27-15-49.06-40.36-55.27a46.83 46.83 0 0 0 -11.04-1.37z"></path>
    <path d="m106.9 125.44a7.17 7.17 0 0 1 -5-2.32c-1.51-1.47-3.09-2.89-4.62-4.27-.66-.58-1.3-1.16-1.91-1.72l-2.3-2.13 22.52-22.64 2.1 2.6c.52.64 1.08 1.3 1.65 2a49.35 49.35 0 0 1 4.74 6.23 7.8 7.8 0 0 1 -.77 8.18c-2.71 3-5.65 5.93-8.48 8.72q-1.62 1.58-3.21 3.16a6.66 6.66 0 0 1 -4.72 2.19zm-5.14-10.65c1.44 1.29 2.91 2.63 4.36 4a3.38 3.38 0 0 0 .75.58 2.76 2.76 0 0 0 .51-.41c1.07-1.08 2.16-2.15 3.24-3.21 2.74-2.69 5.56-5.46 8.11-8.33a3.17 3.17 0 0 0 .15-1.3 41.92 41.92 0 0 0 -3.71-4.86z"></path>
    <path d="m104.44 87.31 3.81 4c-5.73 5.64-11.31 11.13-17.17 16.88l-3.65-3.8z"></path>
    <path d="m126.08 60.4a19.43 19.43 0 1 1 19.42-19.4 19.46 19.46 0 0 1 -19.42 19.4zm0-32.85a13.43 13.43 0 1 0 13.42 13.45 13.44 13.44 0 0 0 -13.42-13.45z"></path>
</svg>